<svg xmlns="http://www.w3.org/2000/svg" viewBox="0 0 120 119.3">
<!-- SVG created with Arrow, by QuiverAI (https://quiver.ai) -->
  <style type="text/css">.cls-0 {fill:#0E1920;}
.cls-1 {fill:#131E26;}
.cls-2 {fill:#28333B;}
.cls-3 {fill:#050B14;}
.cls-4 {fill:#19232B;}
.cls-5 {fill:#28323B;}
.cls-6 {fill:#58626B;}
.cls-7 {fill:url(#SVGID_1_);}
.cls-8 {fill:#00759F;}
.cls-9 {fill:#1BDAFF;}
.cls-10 {fill:#16334B;}
.cls-11 {fill:#9BD7FF;}
.cls-12 {fill:#08141E;}
.cls-13 {fill:#D1D3D4;}
.cls-14 {fill:url(#SVGID_2_);}</style>
  <rect class="cls-0" y=".4" width="120" height="118.6"/>
  <path class="cls-1" d="m116.5 12.1c-0.5-3.4-2.7-7.2-5.2-9.1-2.8-2-7.3-2.9-12.5 1-3.7 2.8-6.9 5.7-10.6 8.1-3.8-2-8.7-4.6-13.2-5.2-5.8-1-9.6-0.3-15 0.1-5.4-0.4-9.2-1.1-15-0.1-4.5 0.7-9.4 3.2-13.1 5.3-3.8-1.7-7-4.1-10.7-7.1-4.7-3.9-9.9-4.7-13.1-1.5-2.3 2.3-4.3 6-4.5 10.8-0.1 5.1 2.1 9.8 4.5 12.9v0.7l-0.2 2.8c-0.3 2.3 0.3 3.3 1.5 5.1l3.4 4.2v4.8c-2.2 4.9-3.3 9.1-3.2 15.2 0 13.5 5 21.9 14.6 31.1 5 4.6 10.6 8.7 15.2 12.6l4.4 2.3c1.6 5.6 8.1 10.9 16.2 11.1 7.9 0.2 14.5-4.2 16.4-8.6l1.2-2.5 3.3-1.8c4.6-3.9 9.8-8.2 14.6-12.5 9.9-9.4 15.1-18 15.1-30.8 0.1-6.7-1-10.8-3-16v-4.8c2.1-2.5 4.8-6 4.7-9.1l-0.3-3.3c2.5-3.4 4.8-8.2 4.5-12.9v-2.8z"/>
  <path class="cls-2" d="m88.2 12.2c-2.5 1-5.4 2.1-8.2 2.8-0.3 0.1-0.6 0.1-0.9 0.2-4.6-1.6-10-2.7-15.6-2.4 0.1 8.4 4.9 10 13.3 14.7-3.9 0.1-6.1 5.4-6.1 9-3.4-2-9.1-6-10.7-12.6v-16.7c5.4-0.4 9.2-1.3 15-0.3 4.5 0.7 9.4 3.2 13.2 5.3z"/>
  <path class="cls-2" d="m60 7.2v16.7c-0.6 6.2-5.9 9.7-10 12.7-0.3-3.7-2.4-9-6.6-9.1 7.9-4.4 12.8-5.9 12.8-14.7-5.2-0.2-10.3 0.6-15.2 2.2-3.8 0-6.6-0.5-9.1-2.8 3.7-2.1 8.6-4.6 13.1-5.3 5.8-1 9.6-0.7 15 0.3z"/>
  <path class="cls-2" d="m9.3 35.9 0.1-0.1c-0.8-1.4-1.4-2.5-1.4-4.2l0.5-4v-0.3c-2.7-2.9-4.9-7.7-4.8-12.9 0.2-4.8 2.2-8.4 4.5-10.7 3.2-3.2 8.3-3.1 13.1 0.5 3.7 3 6.8 5.4 10.6 7.2 2.5 2.2 7.7 3.3 9.1 3.6l-1.2 0.6c-5 0-9.8-2-13.4-4.4-5-3.4-8-7.8-13-7.8-2.3 0-3.9 1-5.2 2.5-2 2.1-3.8 5.6-3.8 9.1 0 4.4 1.6 8.1 5 12.2l0.1 0.2v0.2l-0.1 3c-0.4 2.3-0.1 3.5 0.6 4.8l-0.7 0.5z"/>
  <path class="cls-5" d="m116.5 14.9c0.1 4.6-2 9.5-4.4 12.7v0.4l0.3 3.1c0.1 3.1-2.8 6.6-4.8 9.1v-1.1c1-1.6 3.3-4.9 3.3-7.2l-0.3-4.3v-0.2-0.2c3.2-3.8 5.4-8.1 5.5-12.2 0-3.6-2.2-8.1-4.9-10-1.3-1.1-2.8-1.6-4.6-1.6-5.2 0-8 4.2-12.7 7.6-3.5 2.4-7.9 4.5-12.8 4.5l-1.7-0.4-0.3-0.1c2.8-0.6 6.5-1.5 9.1-2.8 3.8-1.7 6.9-4.1 10.6-7.1 5.2-4.1 9.7-4.1 12.4-2.1 2.6 1.9 4.8 5.7 5.3 9.1v2.8z"/>
  <path class="cls-3" d="m19.3 23.1c-1.4 2.3-3.3 5.3-4.2 7l1.1 1.3c-1 1.7-3.6 6.7-3.4 8.7l-3.4-5.1c-0.8-1.4-1-2.9-0.6-4.9l0.6-2.2c-3.3-3.5-5-7.3-5-12.5 0-3.4 2.1-8 4.6-9.8 1.4-1 2.4-1.2 3.1-1.1 2.8 0 4.1 1.4 5.8 3.1l12.8 13.6-2.9 2.7c-2.2 0.7-6.6 2.7-8.2 4.2 1 0 2.3 0.3 3 0.8-2.4 2.5-8.1 11-9.8 16v-4.8c-0.2-2 2.4-7 3.4-8.7l-1.1-1.3c0.8-1.7 2.8-4.7 4.2-7z"/>
  <path class="cls-3" d="m107.6 39.9v0.3 4.9c-2-5-7-13.2-10.2-16.2 0.7-0.4 2.2-0.7 3.5-0.8-1.8-1.1-5.4-3.1-8.1-4.1l-3.5-3 13.1-13.4c1.6-1.7 3-3.1 6-3.1 1.2 0 2.2 0.4 3.6 1.1-2.1 5-5.5 12-11.1 17.4l4.1 6.9-1 1.5c1.5 2.6 3.4 6.6 3.6 8.5z"/>
  <path class="cls-1" d="m21.5 52.2c-1.6 6.4-1.5 14.8 1.6 20.3 2.3 4.1 6.4 8 6.3 14.1 0 2.8-1.5 6.8-2.3 7.4 4 2.9 6.8 5.5 10.4 8.9l3.5 2c-2.9-3-7.4-8.4-7.4-15 0-6.8 4.9-11.3 8.9-16.9 2.4-3.4 3.9-6.6 3.9-12.9 0-5.5-1.8-12.7-9.4-14.1-3.5-0.6-7.6 0-11.9 1.2 1.5-3.8 5.5-10.3 12-10.4 0.8-2.4 2.5-4.7 6.3-5.4-0.8 2-3.2 4.6-3.2 8.2 0 5.5 8.8 8.3 8.8 19 0 4.9-0.5 8.8-1.1 14.5l12.1-13.1v-36c-1.4 6.4-6 9.5-10 12.6-0.1-3.6-2-9-6.6-9 6.1-3.7 12.8-5.2 12.8-14.8-5.1-0.2-10.3 0.6-15.2 2.3-3.8 1.4-8.5 4.3-13.2 8.8-2.2 0.7-6.4 2.7-8.2 4.2 1 0 2.3 0.3 3 0.8-3.2 3.2-9.1 12.6-11.4 18.7-1.6 4-1.7 9.4-1.6 12.8 0 2.6 0.3 5.2 0.9 8.2 2.6-5 7.6-12.2 11-16.4z"/>
  <path class="cls-4" d="m78.6 31.4c2.5 0.7 4 3 4.4 5.4 5.5-0.2 9.9 3.6 11.9 9.1v1.1l-4.4 1.9c-1 4.7-3.6 7.2-8.9 7.7l-3.8-0.5-3.9 3.3c-0.3 5.2 1.5 9.7 3.7 13.5 3.8 5.7 9 10.5 9 18 0 5.2-2.2 10.5-5.5 13.2 3.5-2.7 7-5.6 11-9-1.2-2.6-1.6-5.6-1.6-8.5 0-6.1 4-9.2 6.4-13.6 2.7-4.9 3.5-10.9 1.7-20.8 3.3 3.8 8.3 10.9 11 16.3 0.8-2.9 1-5.5 1-8.4 0-3.5-0.1-8.1-1.7-12.1-2.4-6.1-7.8-15.6-11.5-19.1 0.7-0.4 2.2-0.7 3.5-0.8-1.8-1.1-5.4-3.1-8-4.1l-3.6-3c3.6-3.4 11.8-11.5 13.1-13.4 1.7-2 3.2-3.1 6-3.1 1 0 2.2 0.4 3.1 1-1.4-1.4-3-2.1-5-2.1-5.1 0-7.9 4.2-12.6 7.6-3.5 2.4-7.9 4.5-12.8 4.6l-1.7-0.2-0.3-0.2c-4.6-1.6-10-2.6-15.6-2.3 0.1 8.3 4.9 10.1 13.3 14.6-3.7 0.1-6.1 5.4-6.1 8.9-3.8-2-9.1-6-10.7-12.4v36l12.5 13.4c-0.6-5.8-1.5-9.9-1.3-14.8 0.3-10.6 8.7-12.6 8.7-19 0-3.1-2-6-3.1-8.4l1.8 0.2z"/>
  <path class="cls-2" d="m47.6 73.6c1-4.1 4.8-13.6 11.8-13.8 7.2-0.4 11.2 6.7 13.1 13.6 0.1 4-0.9 8.2-2.1 11.1h-20.8c-1.1-2.6-2.1-7.4-2-10.9z"/>
  <path class="cls-5" d="m43.4 31.4c-2 3.1-3.2 5.6-3.2 8.2 0 5.5 8.8 8.3 8.8 19 0.1 4.8-0.4 8.4-1 14.4-2.4-5.4-1.1-4.9-2.5-6.4 0.6-1.6 0.9-3.7 0.9-6.6 0-5.4-1.8-12.6-9.4-14-3.5-0.6-6.6-0.4-11.9 1.2 1.5-4.2 5.5-10.3 12-10.4 0.8-2.4 2.8-4.8 6.3-5.4z"/>
  <path class="cls-2" d="m20.7 56.6c0.9-2.1 3.7-5.5 6.2-5.6 2 4.4 4.5 8.9 11.5 8.9h2.2c1.8 1.7 2.5 4.5 2.4 5v7.5l-3.6 4.6c-1.5 2-3.3 5.4-4.8 8.4 0-8.5-9.1-10.4-12.7-18.4-1.5-3.4-1.7-6.6-1.2-10.4z"/>
  <path class="cls-1" d="m29.2 48.6 0.8 0.3c1 3.7 3.1 7.2 7 8.2 2.1 0.5 3 1.3 3.6 2.5-8 0.8-11.4-4-13.5-8.7l2.1-2.3z"/>
  <path class="cls-10" d="m31.9 47.2 0.1 1.7c2.4-0.8 7.1-1.3 11 4 0.4-0.4 0.5-0.8 0.6-1-0.6-2-5.2-5.9-11.7-4.7z"/>
  <radialGradient id="SVGID_1_" cx="37.5" cy="67.04" r="5.833" gradientTransform="matrix(1 0 0 -1 0 119.9)" gradientUnits="userSpaceOnUse">
    <stop stop-color="#14B2E7" offset="0"/>
    <stop stop-color="#1BDAFF" offset="1"/>
  </radialGradient>
  <path class="cls-7" d="m32 48.6c0.2 3 2.1 6.5 6.4 6.6 1.8 0 4-1.2 4.7-2.6-0.2-1.5-3.5-4.7-7.2-4.2l-3.9 0.2z"/>
  <path class="cls-3" d="m25.1 47.2 4.9 1.7c1 4.1 3.9 8 9.1 7.7l3.3-0.5c0.7 0 1.5 0.9 4 3.3v0.6c0-5.4-1.8-12.6-9.4-14.1-3.5-0.8-7-0.4-11.9 1.3zm6.9 0c4.9-1.3 11.6 2.2 11.4 4.9-0.8 1.5-2.8 3.3-5.3 3-4-0.5-6.1-3.7-6.1-7.9z"/>
  <path class="cls-10" d="m88.4 47.2-0.3 1.8c-2.7-0.5-6.1-0.9-10.7 3.6 0-0.4-0.4-1-0.4-1.2 0.9-1.9 4.6-5.4 11.4-4.2z"/>
  <radialGradient id="SVGID_2_" cx="82.5" cy="67.42" r="5.58" gradientTransform="matrix(1 0 0 -1 0 119.9)" gradientUnits="userSpaceOnUse">
    <stop stop-color="#14B2E7" offset="0"/>
    <stop stop-color="#1BDAFF" offset="1"/>
  </radialGradient>
  <path class="cls-14" d="m88.1 48.6v0.4c-0.1 3-2 5.9-5.7 6.2-2 0.2-4.3-1.2-5-2.6 0.5-1.2 3.2-4.2 7-4.2l3.7 0.2z"/>
  <path class="cls-3" d="m94.9 46.9c-3.5-1-6.5-1.8-10.5-1.3-7.5 0.9-10.5 7.4-10.6 13.8l3.8-3.3h0.5c1.8 0.5 3.3 0.8 4.9 0.5 4.6-0.5 6.6-3.6 7.6-7.6l4.3-2.1zm-12.8 8.3c-2.2 0-4.2-1.3-5-3.1-0.6-1.7 4.3-6 11.3-4.9 0 3.9-2.3 7.8-6.3 8z"/>
  <path class="cls-1" d="m91.1 48.6-0.5 0.4c-1 3.9-3 7.1-7.6 8.6l-1.4 0.5-1.6 1.5c7.6 0.8 11.4-3.2 13.1-8.6h1l-3-2.4z"/>
  <path class="cls-1" d="m99.4 56.4c-1-1.9-3.8-5.4-6.3-5.4-1.5 5.1-4.7 8.9-13.1 8.6-1.9 2.3-2.6 4.4-2.6 7.3l0.2 5.5c3 4.7 6.5 8 7.9 12.7 0.1-8.6 9.9-11 12.6-18 1.5-3.1 1.8-7 1.3-10.7z"/>
  <path class="cls-6" d="m48.6 85.1c3.5-4.2 5.9-2.7 9.8-2.2 4.7 0.5 8-2 10.7-0.3l2.5 2-0.2 0.9c-4.4-2.9-5.3-2.1-9.8-1.1-4.5 0.7-7-2.4-10.6-0.5l-2.4 1.6v-0.4z"/>
  <linearGradient id="SVGID_3_" x1="60" x2="60" y1="36.79" y2="23.12" gradientTransform="matrix(1 0 0 -1 0 119.9)" gradientUnits="userSpaceOnUse">
    <stop stop-color="#29333B" offset="0"/>
    <stop stop-color="#121E26" offset="1"/>
  </linearGradient>
  <path d="m46.1 81.6c0 6.9 8.8 8.3 8.5 11.5l3.9 3.8v4.7h2.9v-4.7l3.7-3.5c-0.5-4.3 8.8-3.3 9-10.8-0.7 1.5-2 3.3-4 3.4-3.1 0-7.6 3.5-6.1 7l-3.4 2.9-0.6-7.8-0.6 8-3.8-2.7c2-3.5-2.1-7-5.2-7.3-1.8 0-3.9-2.2-4.3-4.5z" fill="url(#SVGID_3_)"/>
  <path class="cls-2" d="m46.1 81.6c0 7.8 7.8 9.5 8.5 11.3-3.5-1.3-9-3.4-8.5-9.9v-1.4z"/>
  <path class="cls-2" d="m74 82.4c0.9 7.1-5.5 9.2-8.9 10.6 1-3.4 8.3-2.9 8.9-11v0.4z"/>
  <path class="cls-3" d="m43.8 106.5c0.3 1.1 1.1 2.9 1.7 3.7 3.9-1.3 7.6-3.3 14.1-3.3 6.3 0 9.3 0.7 15 3.3l0.4-0.3 1.4-3.4c-4.5 0.9-10.3-0.9-15-4.9h-2.9c-4.1 3-9.1 5.8-14.7 4.9z"/>
  <path class="cls-2" d="m46.6 110.1-1.1 0.1c2.6 3.3 8 6.8 14.6 6.9 5.9 0 11.8-2.5 14.5-6.7l-1-0.5c-2.6 2.2-7.1 5.2-13.6 5.2-4.5 0-9.6-1.7-13.4-5z"/>
  <path class="cls-13" d="m1.6 95.9c6.3-1.9 17.3-4.5 37-4.8v-0.4c-9-0.6-22.4 0.2-37 5.2z"/>
  <path class="cls-13" d="m2.2 104.1c9.8-4.5 21.4-9.2 35.6-10.5v-0.5c-8.4 0.3-23.3 3.4-35.6 11z"/>
  <path class="cls-13" d="m6.6 106.9c6.5-3.5 18.9-8.9 34.6-11.3v-0.5c-8.1 0.5-24.1 4.5-34.6 11.6v0.2z"/>
  <path class="cls-13" d="m6 113.9c8.6-7 20.9-12.5 32.8-16.5l-0.2-0.5c-7.5 1.5-24.2 8.6-32.6 16.9v0.1z"/>
  <path class="cls-13" d="m13.4 117.5c5.7-6.1 14.5-13.4 26.4-18.4l-0.3-0.5c-5.1 1.8-18.4 8-26.1 18.8v0.1z"/>
  <path class="cls-13" d="m25.9 114.9c3.7-5.5 9.6-11 15.5-14.8l-0.2-0.2c-3.7 2.1-11.1 7.5-15.3 15z"/>
  <path class="cls-13" d="m118.9 95.9c-6.4-1.9-17.3-4.5-37.5-4.8v-0.4c9.1-0.6 22.8 0.2 37.6 5.2h-0.1z"/>
  <path class="cls-13" d="m118.2 104.1c-9.8-4.5-21.3-9.2-36.1-10.5l0.1-0.5c8.4 0.3 23.4 3.4 36 11z"/>
  <path class="cls-13" d="m113.6 106.9c-6.5-3.5-18.7-8.9-34.8-11.3l0.2-0.5c8 0.5 24.1 4.5 34.6 11.6v0.2z"/>
  <path class="cls-13" d="m114.4 114c-8.4-6.6-20.8-12.6-33.2-16.6l0.4-0.5c5 1 22.5 6.2 32.8 17.1z"/>
  <path class="cls-13" d="m106.9 117.5c-4.5-5.6-13.9-13.5-26.5-18.9v0.4c6.5 2.5 19 8.9 26.5 18.5z"/>
  <path class="cls-13" d="m93.9 114.4c-2.8-4.5-8-10-15.1-14.3l-0.2 0.4c4 2.6 11.3 7.1 15.3 13.9z"/>
  <path class="cls-3" d="m46.5 100.6"/>
  <path class="cls-11" d="m35.9 48.4 4.3 1.2-0.8 0.4-3.3-0.4-0.2-1.2z"/>
  <path class="cls-10" d="m84.4 48.4-3.9 1.1 0.9 0.5 2.7-0.4 0.3-1.2z"/>
  <path class="cls-10" d="m80.1 49.6c1.5-1.6 4.5-3 8.3-2.4l-0.2 1.7c-1.6-0.5-4.3-0.8-8.1 0.7z"/>
  <path class="cls-10" d="m32 48.6v-1.4c3.4-0.7 6.9 0.2 8.4 1.8-2.9-0.9-5.8-0.9-8.4-0.4z"/>
  <path class="cls-10" d="m36.1 49.6 3.5-0.1 0.6 0.1c-0.8 2.3-3.6 2.4-4.1 0z"/>
  <path class="cls-10" d="m80.1 49.6h4l-0.1 0.5c-0.9 1.9-3.1 1.8-3.9-0.5z"/>
  <path class="cls-11" d="m80.9 49.1c0.7-0.2 2.2-0.7 3.3-0.7l-0.1 1-3.2-0.3z"/>
  <path class="cls-10" d="m36.1 49.6c0.3-0.1 2.3-0.2 2.5-0.2l1.6 0.2c-0.8 2.3-3.6 2.4-4.1 0z"/>
  <path class="cls-10" d="m80.1 49.6h4c-1.1 2.3-3.2 2.3-4 0z"/>
  <path class="cls-10" d="m36.1 49.6c0.3-0.1 2.3-0.2 2.5-0.2l1.6 0.2c-0.8 2.3-3.6 2.4-4.1 0z"/>
  <path class="cls-10" d="m80.1 49.6h4c-1.1 2.3-3.2 2.3-4 0z"/>
  <path class="cls-10" d="m36.1 49.6c0.3-0.1 2.3-0.2 2.5-0.2l1.6 0.2c-0.8 2.3-3.6 2.4-4.1 0z"/>
  <path class="cls-10" d="m80.1 49.6h4c-1.1 2.3-3.2 2.3-4 0z"/>
  <path class="cls-12" d="m36.1 49.6c0.3-0.1 2.3-0.2 2.5-0.2l1.6 0.2c-0.8 2.4-3.6 2.4-4.1 0z"/>
  <path class="cls-10" d="m40.2 49.6"/>
  <path class="cls-10" d="m80.1 49.6h4c-1 2.4-3 2.4-4 0z"/>
  <path class="cls-12" d="m80.1 49.6h4c-1 2.4-3 2.4-4 0z"/>
</svg>